<?xml version="1.0" standalone="no"?>
<!DOCTYPE svg PUBLIC "-//W3C//DTD SVG 20010904//EN"
 "http://www.w3.org/TR/2001/REC-SVG-20010904/DTD/svg10.dtd">
<svg version="1.0" xmlns="http://www.w3.org/2000/svg"
 width="30.000000pt" height="28.000000pt" viewBox="0 0 30.000000 28.000000"
 preserveAspectRatio="xMidYMid meet">

<g transform="translate(0.000000,28.000000) scale(0.100000,-0.100000)"
fill="#000000" stroke="none">
<path d="M73 245 c-18 -19 -33 -45 -33 -58 0 -12 -9 -29 -20 -37 -25 -18 -28
-70 -4 -70 8 0 33 -18 54 -40 37 -38 41 -40 100 -40 67 0 90 13 90 52 0 13 9
30 20 38 21 15 28 50 10 50 -5 0 -10 16 -10 35 0 27 -8 44 -35 70 -31 31 -40
35 -87 34 -47 0 -57 -4 -85 -34z m107 -1 c0 -9 -10 -25 -22 -35 -11 -11 -18
-22 -15 -26 4 -3 15 4 26 15 22 26 31 28 31 6 0 -20 29 -49 38 -39 4 4 1 10
-5 12 -7 3 -13 13 -13 24 0 10 -4 19 -10 19 -5 0 -10 9 -10 20 0 26 6 25 35
-5 17 -16 25 -35 25 -60 0 -19 5 -35 10 -35 18 0 11 -35 -10 -50 -12 -8 -20
-26 -20 -42 0 -29 -14 -38 -24 -15 -5 10 -7 10 -12 0 -3 -7 -14 -13 -24 -13
-10 0 -21 6 -24 13 -5 10 -7 10 -12 0 -10 -23 -34 -14 -79 32 -48 48 -57 75
-25 75 16 0 20 7 20 35 0 49 34 84 83 84 28 1 37 -3 37 -15z"/>
<path d="M80 110 c0 -5 14 -10 30 -10 17 0 30 5 30 10 0 6 -13 10 -30 10 -16
0 -30 -4 -30 -10z"/>
<path d="M213 105 c-15 -17 -17 -45 -3 -45 6 0 10 9 10 20 0 13 7 20 20 20 11
0 20 5 20 10 0 15 -33 11 -47 -5z"/>
<path d="M160 80 c0 -11 5 -20 10 -20 6 0 10 9 10 20 0 11 -4 20 -10 20 -5 0
-10 -9 -10 -20z"/>
</g>
</svg>
